<svg width="36" height="36" viewBox="0 0 36 36" fill="none" xmlns="http://www.w3.org/2000/svg">
<path d="M0.545426 24.2725H2.07268V28.9634C2.07268 29.7816 2.7272 30.4361 3.54538 30.4361H7.25448C8.07265 30.4361 8.72718 29.7816 8.72718 28.9634V24.2725H10.2544C10.5817 24.2725 10.7999 24.0543 10.7999 23.7271V15.5997C10.7999 13.7451 9.43618 12.2179 7.74528 12.2179H3.00002C1.30912 12.2179 0 13.7451 0 15.5997V23.727C0 24.0543 0.218199 24.2725 0.545426 24.2725ZM1.09092 15.5997C1.09092 14.3451 1.96365 13.3087 3.00002 13.3087H7.7455C8.83642 13.3087 9.70915 14.3451 9.70915 15.5997V23.1816H8.72732V19.1997C8.72732 18.8724 8.50912 18.6543 8.1819 18.6543C7.85467 18.6543 7.63647 18.8725 7.63647 19.1997V28.9633C7.63647 29.1815 7.47282 29.3452 7.25462 29.3452H5.9455V23.9997C5.9455 23.6724 5.7273 23.4543 5.40007 23.4543C5.07277 23.4543 4.85465 23.6725 4.85465 23.9997V29.3452H3.54545C3.32725 29.3452 3.1636 29.1815 3.1636 28.9633V19.1997C3.1636 18.8724 2.9454 18.6543 2.61818 18.6543C2.29095 18.6543 2.07275 18.8725 2.07275 19.1997V23.1816H1.09092V15.5997Z" fill="#6F97FF"/>
<path d="M5.40001 11.5627C7.25456 11.5627 8.72726 10.09 8.72726 8.23546C8.72726 6.38091 7.25456 4.9082 5.40001 4.9082C3.54545 4.9082 2.07275 6.38091 2.07275 8.23546C2.07275 10.0899 3.54545 11.5627 5.40001 11.5627ZM5.40001 5.99906C6.65458 5.99906 7.6364 7.03543 7.6364 8.23546C7.6364 9.43548 6.65458 10.4719 5.40001 10.4719C4.14543 10.4719 3.16361 9.43548 3.16361 8.23546C3.16368 7.03536 4.1455 5.99906 5.40001 5.99906Z" fill="#6F97FF"/>
<path d="M12.8176 19.3633H14.3449V24.0542C14.3449 24.8724 14.9994 25.5269 15.8176 25.5269H19.5267C20.3448 25.5269 20.9994 24.8724 20.9994 24.0542V19.3633H22.5266C22.8539 19.3633 23.072 19.1451 23.072 18.8179V10.7451C23.072 8.89053 21.7084 7.36328 20.0175 7.36328H15.272C13.5811 7.36328 12.272 8.89053 12.272 10.7451V18.8724C12.2722 19.1451 12.4904 19.3633 12.8176 19.3633ZM13.3631 10.7451C13.3631 9.49051 14.2358 8.45413 15.2722 8.45413H20.0177C21.1086 8.45413 21.9813 9.49051 21.9813 10.7451V18.3269H20.9995V14.3451C20.9995 14.0178 20.7813 13.7997 20.4541 13.7997C20.1268 13.7997 19.9087 14.0179 19.9087 14.3451V24.1088C19.9087 24.327 19.745 24.4906 19.5268 24.4906H18.2177V19.0906C18.2177 18.7633 17.9995 18.5452 17.6723 18.5452C17.345 18.5452 17.1268 18.7634 17.1268 19.0906V24.4361H15.8177C15.5995 24.4361 15.4359 24.2724 15.4359 24.0542V14.3451C15.4359 14.0178 15.2177 13.7997 14.8904 13.7997C14.5632 13.7997 14.345 14.0179 14.345 14.3451V18.3269H13.3632V10.7451H13.3631Z" fill="#6F97FF"/>
<path d="M17.673 6.70913C19.5275 6.70913 21.0002 5.23643 21.0002 3.38188C21.0002 1.52725 19.473 0 17.673 0C15.873 0 14.3457 1.4727 14.3457 3.32725C14.3457 5.18181 15.8184 6.70913 17.673 6.70913ZM17.673 1.09093C18.9275 1.09093 19.9094 2.1273 19.9094 3.32733C19.9094 4.5819 18.9275 5.56373 17.673 5.56373C16.4184 5.56373 15.4366 4.52735 15.4366 3.32733C15.4366 2.1273 16.4184 1.09093 17.673 1.09093Z" fill="#6F97FF"/>
<path d="M35.4546 21.2725H23.3455C23.0182 21.2725 22.8001 21.4907 22.8001 21.8179V26.6179H11.9455C11.6182 26.6179 11.4 26.8361 11.4 27.1633V30.8179H0.545426C0.218127 30.8179 0 31.0361 0 31.3633V35.4543C0 35.7816 0.218199 35.9997 0.545426 35.9997C6.43637 35.9997 31.7455 35.9997 35.4546 35.9997C35.7819 35.9997 36 35.7815 36 35.4543V21.8179C36.0001 21.5452 35.7819 21.2725 35.4546 21.2725ZM11.4 34.9088H1.09092V31.9088H11.4V34.9088ZM22.8 34.9088H12.491C12.491 32.3452 12.491 30.3816 12.491 27.7088H22.8001V34.9088H22.8ZM34.9091 34.9088H23.8909C23.8909 30.4361 23.8909 27.2179 23.8909 22.3634H34.9091V34.9088Z" fill="#6F97FF"/>
<path d="M24.655 8.50913H26.8914V15.6C26.8914 15.9273 27.1096 16.1455 27.4368 16.1455H31.855C32.1823 16.1455 32.4004 15.9273 32.4004 15.6V8.50913H34.6368C34.855 8.50913 35.0187 8.40003 35.1277 8.23638C35.2368 8.07273 35.2368 7.85453 35.0731 7.69096L30.1096 0.2182C30.0005 0.1091 29.8369 0 29.6732 0C29.5096 0 29.3459 0.1091 29.2369 0.2182L24.1641 7.63641C24.055 7.80006 24.055 8.01826 24.1096 8.18183C24.1641 8.34548 24.4369 8.50913 24.655 8.50913ZM29.6732 1.52725L33.6551 7.41821H31.8551C31.5278 7.41821 31.3096 7.63641 31.3096 7.96363V15.0545H27.9824V7.96363C27.9824 7.63633 27.7642 7.41821 27.437 7.41821H25.637L29.6732 1.52725Z" fill="#6F97FF"/>
<path d="M31.8547 19.1465H27.4365C27.1092 19.1465 26.8911 19.3647 26.8911 19.6919C26.8911 20.0191 27.1093 20.2373 27.4365 20.2373H31.8547C32.182 20.2373 32.4001 20.0191 32.4001 19.6919C32.4001 19.3647 32.1274 19.1465 31.8547 19.1465Z" fill="#6F97FF"/>
<path d="M31.8547 17.1289H27.4365C27.1092 17.1289 26.8911 17.3471 26.8911 17.6743C26.8911 18.0016 27.1093 18.2198 27.4365 18.2198H31.8547C32.182 18.2198 32.4001 18.0016 32.4001 17.6743C32.4001 17.4016 32.1274 17.1289 31.8547 17.1289Z" fill="#6F97FF"/>
</svg>
