<svg width="36" height="36" viewBox="0 0 36 36" fill="none" xmlns="http://www.w3.org/2000/svg">
<path d="M35.9915 19.883C35.9915 19.6601 35.8715 19.4544 35.6774 19.3447L35.6772 19.3447C35.6766 19.3442 35.676 19.3439 35.6754 19.3435C35.6396 19.3198 35.6015 19.2993 35.5614 19.2824L27.3478 15.6118V4.56581C27.3478 4.56047 27.3478 4.5552 27.3476 4.54992C27.3475 4.54816 27.3475 4.54648 27.3475 4.54472C27.3474 4.5412 27.3473 4.53762 27.347 4.5341C27.347 4.53199 27.3469 4.52988 27.3468 4.52777C27.3466 4.52327 27.3463 4.5187 27.3459 4.5142C27.3457 4.51104 27.3454 4.50795 27.3451 4.50485C27.345 4.50323 27.3449 4.50155 27.3447 4.49993C27.3316 4.35916 27.2769 4.23042 27.1932 4.12608C27.192 4.1246 27.1908 4.12313 27.1896 4.12165C27.1879 4.11961 27.1862 4.11757 27.1846 4.11553C27.1828 4.11342 27.181 4.11131 27.1792 4.1092C27.1779 4.10766 27.1766 4.10611 27.1753 4.10463C27.1721 4.10098 27.1689 4.09732 27.1656 4.09373C27.1649 4.09303 27.1643 4.09233 27.1636 4.09163C27.1606 4.08839 27.1576 4.08516 27.1546 4.08199C27.1539 4.08122 27.1532 4.08052 27.1524 4.07974C27.149 4.07623 27.1457 4.07271 27.1422 4.06927C27.142 4.06906 27.1418 4.06884 27.1416 4.06863C27.1377 4.06477 27.1338 4.0609 27.1298 4.0571C27.1296 4.05696 27.1295 4.05689 27.1294 4.05675C27.1258 4.05331 27.1221 4.04986 27.1184 4.04648C27.1177 4.04585 27.117 4.04522 27.1163 4.04459C27.1129 4.04156 27.1095 4.03847 27.106 4.03552C27.1055 4.03502 27.1049 4.03446 27.1043 4.03397C27.1004 4.03066 27.0965 4.02736 27.0926 4.02413C27.0915 4.02321 27.0903 4.0223 27.0893 4.02145C27.0867 4.01934 27.084 4.01716 27.0813 4.01506C27.0796 4.01365 27.0778 4.01224 27.076 4.01084C27.074 4.00929 27.072 4.00774 27.0699 4.0062C27.0231 3.97055 26.9717 3.94066 26.9167 3.91753L18.2881 0.0611719C18.1055 -0.0203906 17.8968 -0.0203906 17.7143 0.0611719L9.08541 3.91739C9.03043 3.94052 8.97903 3.97041 8.9322 4.00605C8.93016 4.0076 8.92812 4.00915 8.92616 4.0107C8.92433 4.0121 8.92257 4.01351 8.92081 4.01491C8.91814 4.01702 8.91554 4.01913 8.91287 4.02131C8.91174 4.02223 8.91062 4.02307 8.90956 4.02398C8.90562 4.02722 8.90176 4.03052 8.89789 4.03383C8.89733 4.03432 8.89677 4.03481 8.89613 4.03538C8.89269 4.03833 8.88924 4.04142 8.88587 4.04445C8.88516 4.04508 8.88446 4.04571 8.88376 4.04634C8.88003 4.04972 8.87637 4.05316 8.87272 4.05661C8.87258 4.05675 8.87251 4.05682 8.87237 4.05696C8.86836 4.06076 8.86442 4.06463 8.86055 4.06849C8.86034 4.0687 8.86013 4.06891 8.85992 4.06913C8.85648 4.07257 8.8531 4.07609 8.84973 4.0796C8.84902 4.08038 8.84825 4.08108 8.84755 4.08185C8.84452 4.08502 8.8415 4.08825 8.83855 4.09148C8.83791 4.09219 8.83721 4.09289 8.83658 4.09359C8.83334 4.09718 8.83011 4.10084 8.82687 4.10449C8.82554 4.10597 8.82427 4.10752 8.82294 4.10906C8.82118 4.11117 8.81935 4.11328 8.81759 4.11539C8.81591 4.11743 8.81422 4.11947 8.81253 4.12151C8.81134 4.12298 8.81014 4.12446 8.80902 4.12594C8.7252 4.23028 8.67057 4.35895 8.65749 4.49979C8.65735 4.50141 8.65721 4.50309 8.65707 4.50471C8.65679 4.50788 8.65651 4.51097 8.6563 4.51406C8.65594 4.51856 8.65566 4.52313 8.65545 4.52763C8.65531 4.52974 8.65524 4.53185 8.65517 4.53396C8.65503 4.53748 8.65489 4.54106 8.65475 4.54458C8.65468 4.54634 8.65468 4.54802 8.65461 4.54978C8.65447 4.55506 8.6544 4.5604 8.6544 4.56567V15.6116L0.440844 19.2824C0.440633 19.2824 0.440422 19.2825 0.440211 19.2826C0.180477 19.3916 0.0107422 19.6455 0.0107422 19.9271V19.9304V31.4322C0.0107422 31.7095 0.173727 31.9609 0.426992 32.074C0.426992 32.074 9.07163 35.9373 9.07213 35.9375L9.0762 35.9393C9.25423 36.0198 9.45828 36.0202 9.63659 35.9403L9.6444 35.9368L18.0012 32.2023L26.358 35.9369C26.358 35.937 26.3689 35.9411 26.3863 35.9477C26.5624 36.0146 26.7583 36.0109 26.9316 35.9369C26.9316 35.9369 26.9316 35.9369 26.9316 35.9369L35.5753 32.074C35.8285 31.9609 35.9915 31.7095 35.9915 31.4322V19.9304V19.883ZM26.6448 23.0232L19.7245 19.9304L26.6448 16.8377L33.5652 19.9304L26.6448 23.0232ZM18.0012 11.2191C18.3894 11.2191 18.7042 10.9043 18.7042 10.5161V8.88462L25.9417 5.65024V15.6117L18.7042 18.8461V16.8729C18.7042 16.4846 18.3894 16.1698 18.0012 16.1698C17.6129 16.1698 17.2981 16.4846 17.2981 16.8729V18.8461L10.0606 15.6117V5.65024L17.2981 8.88462V10.5161C17.2981 10.9044 17.6129 11.2191 18.0012 11.2191ZM18.0012 1.47319L24.9216 4.56595L18.0012 7.65858L11.0807 4.56588L18.0012 1.47319ZM9.35752 16.8377L16.278 19.9304L9.35752 23.0232L2.43716 19.9304L9.35752 16.8377ZM1.41692 21.0148L8.67345 24.2577C8.66101 24.3101 8.6544 24.3647 8.6544 24.4209V34.2107L1.41692 30.9762V21.0148ZM10.0415 24.2577L17.2981 21.0148V30.9763L10.0606 34.2108V24.4208C10.0606 24.3647 10.054 24.3101 10.0415 24.2577ZM18.7042 21.0148L25.9608 24.2577C25.9483 24.3101 25.9417 24.3647 25.9417 24.4209V34.2107L18.7042 30.9762V21.0148ZM27.3479 34.2107V24.4208C27.3479 24.3646 27.3413 24.31 27.3288 24.2577L34.5854 21.0147V30.9762L27.3479 34.2107Z" fill="#6F97FF"/>
<path d="M18 14.3849C17.7025 14.3849 17.4297 14.1899 17.3342 13.9078C17.2442 13.642 17.325 13.3385 17.5364 13.1534C17.7668 12.9517 18.1109 12.9243 18.371 13.0852C18.6203 13.2395 18.7493 13.5445 18.6866 13.8308C18.6166 14.1501 18.3274 14.3849 18 14.3849Z" fill="#6F97FF"/>
</svg>
